Angelica.ufo
<glyph name="uni000D" format="2">
  <advance width="267"/>
  <unicode hex="000D"/>
  <outline>
    <contour>
      <point x="82" y="-56" type="line"/>
      <point x="190" y="-56" type="line"/>
      <point x="190" y="-147" type="line"/>
      <point x="82" y="-214" type="line"/>
    </contour>
  </outline>
</glyph>
<glyph name="numbersign" format="2">
  <advance width="593"/>
  <unicode hex="0023"/>
  <outline>
    <contour>
      <point x="248" y="580" type="line"/>
      <point x="340" y="580" type="line"/>
      <point x="224" y="33" type="line"/>
      <point x="132" y="33" type="line"/>
    </contour>
    <contour>
      <point x="390" y="580" type="line"/>
      <point x="482" y="580" type="line"/>
      <point x="366" y="33" type="line"/>
      <point x="274" y="33" type="line"/>
    </contour>
    <contour>
      <point x="26" y="166" type="line"/>
      <point x="45" y="258" type="line"/>
      <point x="525" y="258" type="line"/>
      <point x="506" y="166" type="line"/>
    </contour>
    <contour>
      <point x="63" y="342" type="line"/>
      <point x="83" y="434" type="line"/>
      <point x="563" y="434" type="line"/>
      <point x="543" y="342" type="line"/>
    </contour>
  </outline>
</glyph>
<glyph name="dollar" format="2">
  <advance width="617"/>
  <unicode hex="0024"/>
  <outline>
    <contour>
      <point x="396" y="80" type="line"/>
      <point x="396" y="0" type="line"/>
      <point x="317" y="0" type="line"/>
      <point x="317" y="80" type="line"/>
      <point x="283" y="80" type="line"/>
      <point x="283" y="0" type="line"/>
      <point x="204" y="0" type="line"/>
      <point x="204" y="80" type="line"/>
      <point x="181" y="80" type="line" smooth="yes"/>
      <point x="148" y="80"/>
      <point x="91" y="107"/>
      <point x="47" y="154"/>
      <point x="22" y="216"/>
      <point x="22" y="252" type="qcurve"/>
      <point x="99" y="252" type="line"/>
      <point x="99" y="219"/>
      <point x="127" y="172"/>
      <point x="149" y="162" type="qcurve"/>
      <point x="148" y="163" type="line"/>
      <point x="154" y="161"/>
      <point x="189" y="159" type="qcurve"/>
      <point x="204" y="159" type="line"/>
      <point x="204" y="320" type="line"/>
      <point x="134" y="323"/>
      <point x="120" y="330" type="qcurve"/>
      <point x="77" y="349"/>
      <point x="23" y="425"/>
      <point x="23" y="474" type="qcurve" smooth="yes"/>
      <point x="23" y="506"/>
      <point x="48" y="564"/>
      <point x="90" y="608"/>
      <point x="148" y="634"/>
      <point x="181" y="634" type="qcurve" smooth="yes"/>
      <point x="204" y="634" type="line"/>
      <point x="204" y="695" type="line"/>
      <point x="283" y="695" type="line"/>
      <point x="283" y="634" type="line"/>
      <point x="317" y="634" type="line"/>
      <point x="317" y="695" type="line"/>
      <point x="396" y="695" type="line"/>
      <point x="396" y="634" type="line"/>
      <point x="428" y="634" type="line" smooth="yes"/>
      <point x="461" y="634"/>
      <point x="519" y="607"/>
      <point x="561" y="560"/>
      <point x="586" y="498"/>
      <point x="586" y="462" type="qcurve"/>
      <point x="510" y="462" type="line"/>
      <point x="510" y="494"/>
      <point x="483" y="542"/>
      <point x="460" y="552" type="qcurve"/>
      <point x="461" y="551" type="line"/>
      <point x="458" y="552"/>
      <point x="426" y="554"/>
      <point x="403" y="555" type="qcurve"/>
      <point x="396" y="555" type="line"/>
      <point x="396" y="392" type="line"/>
      <point x="417" y="392" type="line"/>
      <point x="444" y="390"/>
      <point x="483" y="386"/>
      <point x="489" y="383" type="qcurve" smooth="yes"/>
      <point x="532" y="365"/>
      <point x="586" y="288"/>
      <point x="586" y="240" type="qcurve" smooth="yes"/>
      <point x="586" y="207"/>
      <point x="561" y="149"/>
      <point x="519" y="106"/>
      <point x="461" y="80"/>
      <point x="428" y="80" type="qcurve" smooth="yes"/>
    </contour>
    <contour>
      <point x="317" y="558" type="line"/>
      <point x="312" y="559"/>
      <point x="302" y="559"/>
      <point x="297" y="559" type="qcurve" smooth="yes"/>
      <point x="283" y="559" type="line"/>
      <point x="283" y="394" type="line"/>
      <point x="289" y="394" type="line"/>
      <point x="317" y="394" type="line"/>
    </contour>
    <contour>
      <point x="148" y="401" type="line"/>
      <point x="154" y="398"/>
      <point x="204" y="396" type="qcurve"/>
      <point x="204" y="557" type="line"/>
      <point x="156" y="556"/>
      <point x="149" y="552" type="qcurve"/>
      <point x="127" y="543"/>
      <point x="99" y="502"/>
      <point x="99" y="476" type="qcurve" smooth="yes"/>
      <point x="99" y="450"/>
      <point x="127" y="410"/>
      <point x="149" y="400" type="qcurve"/>
    </contour>
    <contour>
      <point x="314" y="157" type="line"/>
      <point x="317" y="157" type="line"/>
      <point x="317" y="318" type="line"/>
      <point x="283" y="318" type="line"/>
      <point x="283" y="157" type="line"/>
    </contour>
    <contour>
      <point x="396" y="158" type="line"/>
      <point x="405" y="158"/>
      <point x="409" y="159" type="qcurve"/>
      <point x="430" y="159"/>
      <point x="458" y="161"/>
      <point x="460" y="162" type="qcurve" smooth="yes"/>
      <point x="483" y="171"/>
      <point x="510" y="211"/>
      <point x="510" y="238" type="qcurve" smooth="yes"/>
      <point x="510" y="264"/>
      <point x="483" y="304"/>
      <point x="460" y="314" type="qcurve"/>
      <point x="461" y="313" type="line"/>
      <point x="458" y="314"/>
      <point x="424" y="316"/>
      <point x="399" y="317" type="qcurve"/>
      <point x="396" y="317" type="line"/>
    </contour>
  </outline>
</glyph>
<glyph name="percent" format="2">
  <advance width="713"/>
  <unicode hex="0025"/>
  <outline>
    <contour>
      <point x="314" y="435" type="line" smooth="yes"/>
      <point x="314" y="418"/>
      <point x="299" y="387"/>
      <point x="275" y="364"/>
      <point x="243" y="351"/>
      <point x="227" y="351" type="qcurve" smooth="yes"/>
      <point x="111" y="351" type="line" smooth="yes"/>
      <point x="75" y="351"/>
      <point x="24" y="402"/>
      <point x="24" y="439" type="qcurve" smooth="yes"/>
      <point x="24" y="612" type="line" smooth="yes"/>
      <point x="24" y="648"/>
      <point x="75" y="700"/>
      <point x="111" y="700" type="qcurve" smooth="yes"/>
      <point x="227" y="700" type="line" smooth="yes"/>
      <point x="263" y="700"/>
      <point x="314" y="648"/>
      <point x="314" y="612" type="qcurve" smooth="yes"/>
    </contour>
    <contour>
      <point x="530" y="695" type="line"/>
      <point x="209" y="0" type="line"/>
      <point x="151" y="0" type="line"/>
      <point x="472" y="695" type="line"/>
    </contour>
    <contour>
      <point x="201" y="393" type="line"/>
      <point x="221" y="394"/>
      <point x="245" y="396"/>
      <point x="247" y="397" type="qcurve" smooth="yes"/>
      <point x="257" y="403"/>
      <point x="261" y="408" type="qcurve" smooth="yes"/>
      <point x="273" y="424"/>
      <point x="273" y="447" type="qcurve" smooth="yes"/>
      <point x="273" y="612" type="line" smooth="yes"/>
      <point x="273" y="632"/>
      <point x="259" y="644" type="qcurve" smooth="yes"/>
      <point x="255" y="647"/>
      <point x="249" y="652"/>
      <point x="244" y="654" type="qcurve" smooth="yes"/>
      <point x="237" y="658"/>
      <point x="201" y="658" type="qcurve"/>
    </contour>
    <contour>
      <point x="688" y="84" type="line" smooth="yes"/>
      <point x="688" y="67"/>
      <point x="673" y="36"/>
      <point x="649" y="13"/>
      <point x="617" y="0"/>
      <point x="601" y="0" type="qcurve" smooth="yes"/>
      <point x="485" y="0" type="line" smooth="yes"/>
      <point x="449" y="0"/>
      <point x="398" y="51"/>
      <point x="398" y="88" type="qcurve" smooth="yes"/>
      <point x="398" y="261" type="line" smooth="yes"/>
      <point x="398" y="297"/>
      <point x="449" y="349"/>
      <point x="485" y="349" type="qcurve" smooth="yes"/>
      <point x="601" y="349" type="line" smooth="yes"/>
      <point x="637" y="349"/>
      <point x="688" y="297"/>
      <point x="688" y="261" type="qcurve" smooth="yes"/>
    </contour>
    <contour>
      <point x="575" y="42" type="line"/>
      <point x="595" y="43"/>
      <point x="619" y="45"/>
      <point x="621" y="46" type="qcurve" smooth="yes"/>
      <point x="631" y="52"/>
      <point x="635" y="57" type="qcurve" smooth="yes"/>
      <point x="647" y="73"/>
      <point x="647" y="96" type="qcurve" smooth="yes"/>
      <point x="647" y="261" type="line" smooth="yes"/>
      <point x="647" y="281"/>
      <point x="633" y="293" type="qcurve" smooth="yes"/>
      <point x="629" y="296"/>
      <point x="623" y="301"/>
      <point x="618" y="303" type="qcurve" smooth="yes"/>
      <point x="611" y="307"/>
      <point x="575" y="307" type="qcurve"/>
    </contour>
  </outline>
</glyph>
<glyph name="ampersand" format="2">
  <advance width="724"/>
  <unicode hex="0026"/>
  <outline>
    <contour>
      <point x="590" y="461" type="line"/>
      <point x="661" y="461" type="line"/>
      <point x="661" y="438"/>
      <point x="660" y="418" type="qcurve"/>
      <point x="678" y="419"/>
      <point x="699" y="419" type="qcurve"/>
      <point x="699" y="346" type="line"/>
      <point x="660" y="346" type="line"/>
      <point x="659" y="221"/>
      <point x="659" y="211" type="qcurve" smooth="yes"/>
      <point x="659" y="167"/>
      <point x="627" y="90"/>
      <point x="571" y="33"/>
      <point x="493" y="0"/>
      <point x="449" y="0" type="qcurve" smooth="yes"/>
      <point x="241" y="0" type="line" smooth="yes"/>
      <point x="196" y="0"/>
      <point x="120" y="33"/>
      <point x="63" y="91"/>
      <point x="31" y="168"/>
      <point x="31" y="212" type="qcurve" smooth="yes"/>
      <point x="31" y="269"/>
      <point x="83" y="357"/>
      <point x="131" y="386" type="qcurve"/>
      <point x="100" y="411"/>
      <point x="66" y="480"/>
      <point x="66" y="519" type="qcurve" smooth="yes"/>
      <point x="66" y="556"/>
      <point x="93" y="620"/>
      <point x="140" y="668"/>
      <point x="204" y="695"/>
      <point x="241" y="695" type="qcurve" smooth="yes"/>
      <point x="486" y="695" type="line" smooth="yes"/>
      <point x="523" y="695"/>
      <point x="586" y="668"/>
      <point x="633" y="621"/>
      <point x="646" y="589" type="qcurve" smooth="yes"/>
      <point x="659" y="559"/>
      <point x="660" y="525" type="qcurve"/>
      <point x="590" y="525" type="line"/>
      <point x="589" y="568"/>
      <point x="560" y="596" type="qcurve"/>
      <point x="531" y="626"/>
      <point x="486" y="626" type="qcurve"/>
      <point x="449" y="627" type="line"/>
      <point x="449" y="417" type="line"/>
      <point x="590" y="418" type="line"/>
    </contour>
    <contour>
      <point x="590" y="209" type="qcurve" smooth="yes"/>
      <point x="590" y="346" type="line"/>
      <point x="449" y="346" type="line"/>
      <point x="449" y="70" type="line"/>
      <point x="478" y="70"/>
      <point x="531" y="92"/>
      <point x="568" y="129"/>
      <point x="590" y="180"/>
    </contour>
  </outline>
</glyph>
<glyph name="hyphen" format="2">
  <advance width="537"/>
  <unicode hex="002D"/>
  <outline>
    <contour>
      <point x="505" y="285" type="line"/>
      <point x="26" y="285" type="line"/>
      <point x="26" y="360" type="line"/>
      <point x="505" y="360" type="line"/>
    </contour>
  </outline>
</glyph>
<glyph name="M" format="2">
  <advance width="1138"/>
  <unicode hex="004D"/>
  <outline>
    <contour>
      <point x="1089" y="695" type="line"/>
      <point x="1089" y="0" type="line"/>
      <point x="672" y="0" type="line"/>
      <point x="672" y="540" type="line"/>
      <point x="568" y="309" type="line"/>
      <point x="463" y="540" type="line"/>
      <point x="463" y="0" type="line"/>
      <point x="46" y="0" type="line"/>
      <point x="46" y="695" type="line"/>
      <point x="463" y="695" type="line"/>
      <point x="477" y="666"/>
      <point x="503" y="608"/>
      <point x="516" y="579" type="qcurve" smooth="yes"/>
      <point x="518" y="575"/>
      <point x="520" y="569"/>
      <point x="522" y="565" type="qcurve" smooth="yes"/>
      <point x="524" y="561" type="line" smooth="yes"/>
      <point x="528" y="553"/>
      <point x="535" y="535"/>
      <point x="539" y="527" type="qcurve"/>
      <point x="541" y="524" type="line"/>
      <point x="544" y="516"/>
      <point x="550" y="502"/>
      <point x="554" y="495" type="qcurve"/>
      <point x="555" y="492" type="line"/>
      <point x="558" y="485"/>
      <point x="564" y="473"/>
      <point x="566" y="467" type="qcurve"/>
      <point x="568" y="463" type="line"/>
      <point x="594" y="523"/>
      <point x="646" y="637"/>
      <point x="672" y="695" type="qcurve"/>
    </contour>
  </outline>
</glyph>
<glyph name="Q" format="2">
  <advance width="709"/>
  <unicode hex="0051"/>
  <outline>
    <contour>
      <point x="595" y="486" type="line"/>
      <point x="595" y="515"/>
      <point x="573" y="566"/>
      <point x="536" y="603"/>
      <point x="485" y="625"/>
      <point x="456" y="625" type="qcurve"/>
      <point x="456" y="69" type="line"/>
      <point x="480" y="69"/>
      <point x="503" y="78" type="qcurve"/>
      <point x="532" y="14" type="line"/>
      <point x="493" y="0"/>
      <point x="456" y="0" type="qcurve" smooth="yes"/>
      <point x="247" y="0" type="line" smooth="yes"/>
      <point x="204" y="0"/>
      <point x="128" y="33"/>
      <point x="72" y="89"/>
      <point x="39" y="165"/>
      <point x="39" y="208" type="qcurve" smooth="yes"/>
      <point x="39" y="486" type="line" smooth="yes"/>
      <point x="39" y="529"/>
      <point x="72" y="605"/>
      <point x="128" y="662"/>
      <point x="204" y="695"/>
      <point x="247" y="695" type="qcurve" smooth="yes"/>
      <point x="456" y="695" type="line" smooth="yes"/>
      <point x="499" y="695"/>
      <point x="575" y="662"/>
      <point x="631" y="605"/>
      <point x="664" y="529"/>
      <point x="664" y="486" type="qcurve" smooth="yes"/>
      <point x="664" y="422"/>
      <point x="665" y="295"/>
      <point x="665" y="232" type="qcurve" smooth="yes"/>
      <point x="665" y="190"/>
      <point x="648" y="118"/>
      <point x="622" y="83" type="qcurve"/>
      <point x="587" y="162" type="line"/>
      <point x="589" y="169"/>
      <point x="592" y="200"/>
      <point x="594" y="242"/>
      <point x="595" y="292"/>
      <point x="595" y="318" type="qcurve" smooth="yes"/>
      <point x="595" y="353" type="line"/>
      <point x="595" y="355" type="line"/>
      <point x="595" y="357" type="line"/>
      <point x="595" y="359" type="line"/>
      <point x="595" y="370" type="line"/>
      <point x="595" y="372" type="line"/>
      <point x="595" y="379" type="line"/>
      <point x="595" y="384" type="line"/>
      <point x="595" y="418" type="line"/>
      <point x="595" y="420" type="line"/>
      <point x="595" y="421" type="line"/>
      <point x="595" y="423" type="line"/>
      <point x="595" y="432" type="line"/>
      <point x="595" y="434" type="line"/>
      <point x="595" y="440" type="line"/>
      <point x="595" y="444" type="line"/>
      <point x="595" y="469" type="line"/>
      <point x="595" y="470" type="line"/>
      <point x="595" y="472" type="line"/>
      <point x="595" y="473" type="line"/>
      <point x="595" y="478" type="line"/>
      <point x="595" y="479" type="line"/>
      <point x="595" y="483" type="line"/>
      <point x="595" y="485" type="line"/>
    </contour>
    <contour>
      <point x="635" y="0" type="line"/>
      <point x="565" y="0" type="line"/>
      <point x="548" y="37"/>
      <point x="515" y="112"/>
      <point x="498" y="150" type="qcurve"/>
      <point x="567" y="150" type="line"/>
    </contour>
  </outline>
</glyph>
<glyph name="braceleft" format="2">
  <advance width="387"/>
  <unicode hex="007B"/>
  <outline>
    <contour>
      <point x="358" y="746" type="line"/>
      <point x="328" y="747"/>
      <point x="291" y="698"/>
      <point x="284" y="672" type="qcurve" smooth="yes"/>
      <point x="277" y="649"/>
      <point x="280" y="583"/>
      <point x="285" y="508"/>
      <point x="286" y="439"/>
      <point x="279" y="413" type="qcurve" smooth="yes"/>
      <point x="268" y="372"/>
      <point x="239" y="354" type="qcurve" smooth="yes"/>
      <point x="230" y="348"/>
      <point x="220" y="344" type="qcurve"/>
      <point x="230" y="339"/>
      <point x="239" y="334" type="qcurve" smooth="yes"/>
      <point x="268" y="316"/>
      <point x="279" y="275" type="qcurve" smooth="yes"/>
      <point x="286" y="249"/>
      <point x="285" y="180"/>
      <point x="280" y="105"/>
      <point x="277" y="39"/>
      <point x="284" y="16" type="qcurve" smooth="yes"/>
      <point x="291" y="-10"/>
      <point x="328" y="-59"/>
      <point x="358" y="-58" type="qcurve"/>
      <point x="358" y="-125" type="line"/>
      <point x="327" y="-126"/>
      <point x="248" y="-132"/>
      <point x="176" y="-121"/>
      <point x="117" y="-85"/>
      <point x="106" y="-46" type="qcurve" smooth="yes"/>
      <point x="96" y="-9"/>
      <point x="101" y="92"/>
      <point x="101" y="134" type="qcurve"/>
      <point x="102" y="133" type="line"/>
      <point x="101" y="137"/>
      <point x="101" y="162"/>
      <point x="102" y="188"/>
      <point x="103" y="211"/>
      <point x="103" y="212" type="qcurve"/>
      <point x="95" y="236"/>
      <point x="59" y="287"/>
      <point x="28" y="287" type="qcurve"/>
      <point x="28" y="401" type="line"/>
      <point x="59" y="401"/>
      <point x="95" y="452"/>
      <point x="103" y="476" type="qcurve"/>
      <point x="103" y="477"/>
      <point x="102" y="500"/>
      <point x="101" y="526"/>
      <point x="101" y="551"/>
      <point x="102" y="555" type="qcurve"/>
      <point x="101" y="554" type="line"/>
      <point x="101" y="596"/>
      <point x="96" y="697"/>
      <point x="106" y="734" type="qcurve" smooth="yes"/>
      <point x="117" y="773"/>
      <point x="176" y="809"/>
      <point x="248" y="820"/>
      <point x="327" y="814"/>
      <point x="358" y="813" type="qcurve"/>
    </contour>
  </outline>
</glyph>
<glyph name="braceright" format="2">
  <advance width="387"/>
  <unicode hex="007D"/>
  <outline>
    <contour>
      <point x="28" y="813" type="line"/>
      <point x="59" y="814"/>
      <point x="138" y="820"/>
      <point x="210" y="809"/>
      <point x="269" y="773"/>
      <point x="280" y="734" type="qcurve" smooth="yes"/>
      <point x="290" y="697"/>
      <point x="285" y="596"/>
      <point x="285" y="554" type="qcurve"/>
      <point x="284" y="555" type="line"/>
      <point x="285" y="551"/>
      <point x="285" y="526"/>
      <point x="284" y="500"/>
      <point x="283" y="477"/>
      <point x="283" y="476" type="qcurve"/>
      <point x="291" y="452"/>
      <point x="327" y="401"/>
      <point x="358" y="401" type="qcurve"/>
      <point x="358" y="287" type="line"/>
      <point x="327" y="287"/>
      <point x="291" y="236"/>
      <point x="283" y="212" type="qcurve"/>
      <point x="283" y="211"/>
      <point x="284" y="188"/>
      <point x="285" y="162"/>
      <point x="285" y="137"/>
      <point x="284" y="133" type="qcurve"/>
      <point x="285" y="134" type="line"/>
      <point x="285" y="92"/>
      <point x="290" y="-9"/>
      <point x="280" y="-46" type="qcurve" smooth="yes"/>
      <point x="269" y="-85"/>
      <point x="210" y="-121"/>
      <point x="138" y="-132"/>
      <point x="59" y="-126"/>
      <point x="28" y="-125" type="qcurve"/>
      <point x="28" y="-58" type="line"/>
      <point x="58" y="-59"/>
      <point x="95" y="-10"/>
      <point x="102" y="16" type="qcurve" smooth="yes"/>
      <point x="109" y="39"/>
      <point x="106" y="105"/>
      <point x="101" y="180"/>
      <point x="100" y="249"/>
      <point x="107" y="275" type="qcurve" smooth="yes"/>
      <point x="118" y="316"/>
      <point x="147" y="334" type="qcurve" smooth="yes"/>
      <point x="156" y="339"/>
      <point x="166" y="344" type="qcurve"/>
      <point x="156" y="348"/>
      <point x="147" y="354" type="qcurve" smooth="yes"/>
      <point x="118" y="372"/>
      <point x="107" y="413" type="qcurve" smooth="yes"/>
      <point x="100" y="439"/>
      <point x="101" y="508"/>
      <point x="106" y="583"/>
      <point x="109" y="649"/>
      <point x="102" y="672" type="qcurve" smooth="yes"/>
      <point x="95" y="698"/>
      <point x="58" y="747"/>
      <point x="28" y="746" type="qcurve"/>
    </contour>
  </outline>
</glyph>
<glyph name="asciitilde" format="2">
  <advance width="587"/>
  <unicode hex="007E"/>
  <outline>
    <contour>
      <point x="563" y="484" type="line"/>
      <point x="556" y="454"/>
      <point x="541" y="377"/>
      <point x="512" y="310"/>
      <point x="462" y="262"/>
      <point x="420" y="262" type="qcurve" smooth="yes"/>
      <point x="382" y="262"/>
      <point x="286" y="293"/>
      <point x="246" y="304" type="qcurve"/>
      <point x="246" y="305" type="line"/>
      <point x="243" y="305"/>
      <point x="219" y="312"/>
      <point x="194" y="320"/>
      <point x="172" y="326"/>
      <point x="171" y="326" type="qcurve"/>
      <point x="146" y="326"/>
      <point x="87" y="304"/>
      <point x="79" y="274" type="qcurve"/>
      <point x="13" y="292" type="line"/>
      <point x="20" y="323"/>
      <point x="35" y="400"/>
      <point x="64" y="467"/>
      <point x="113" y="513"/>
      <point x="156" y="513" type="qcurve" smooth="yes"/>
      <point x="184" y="513"/>
      <point x="250" y="494"/>
      <point x="320" y="469"/>
      <point x="383" y="450"/>
      <point x="408" y="450" type="qcurve" smooth="yes"/>
      <point x="435" y="450"/>
      <point x="491" y="473"/>
      <point x="498" y="503" type="qcurve"/>
    </contour>
  </outline>
</glyph>
<glyph name="sterling" format="2">
  <advance width="677"/>
  <unicode hex="00A3"/>
  <outline>
    <contour>
      <point x="655" y="224" type="line"/>
      <point x="648" y="194"/>
      <point x="633" y="117"/>
      <point x="604" y="50"/>
      <point x="554" y="2"/>
      <point x="512" y="2" type="qcurve" smooth="yes"/>
      <point x="474" y="2"/>
      <point x="378" y="33"/>
      <point x="338" y="44" type="qcurve"/>
      <point x="338" y="45" type="line"/>
      <point x="335" y="45"/>
      <point x="311" y="52"/>
      <point x="286" y="60"/>
      <point x="264" y="66"/>
      <point x="263" y="66" type="qcurve"/>
      <point x="227" y="66"/>
      <point x="179" y="31"/>
      <point x="171" y="1" type="qcurve"/>
      <point x="106" y="18" type="line"/>
      <point x="105" y="19" type="line"/>
      <point x="105" y="21"/>
      <point x="106" y="22" type="qcurve"/>
      <point x="106" y="486" type="line" smooth="yes"/>
      <point x="106" y="529"/>
      <point x="139" y="605"/>
      <point x="195" y="662"/>
      <point x="271" y="695"/>
      <point x="314" y="695" type="qcurve" smooth="yes"/>
      <point x="562" y="695" type="line"/>
      <point x="562" y="626" type="line"/>
      <point x="401" y="626" type="line"/>
      <point x="401" y="212" type="line"/>
      <point x="423" y="205"/>
      <point x="443" y="199" type="qcurve" smooth="yes"/>
      <point x="475" y="190"/>
      <point x="500" y="190" type="qcurve" smooth="yes"/>
      <point x="527" y="190"/>
      <point x="583" y="213"/>
      <point x="590" y="243" type="qcurve"/>
    </contour>
    <contour>
      <point x="498" y="305" type="line"/>
      <point x="19" y="305" type="line"/>
      <point x="19" y="380" type="line"/>
      <point x="498" y="380" type="line"/>
    </contour>
  </outline>
</glyph>
<glyph name="yen" format="2">
  <advance width="840"/>
  <unicode hex="00A5"/>
  <outline>
    <contour>
      <point x="372" y="695" type="line"/>
      <point x="789" y="695" type="line"/>
      <point x="476" y="0" type="line"/>
      <point x="59" y="0" type="line"/>
      <point x="253" y="430" type="line"/>
      <point x="133" y="695" type="line"/>
      <point x="220" y="695" type="line"/>
      <point x="296" y="526" type="line"/>
    </contour>
    <contour>
      <point x="815" y="215" type="line"/>
      <point x="32" y="215" type="line"/>
      <point x="32" y="290" type="line"/>
      <point x="815" y="290" type="line"/>
    </contour>
    <contour>
      <point x="815" y="400" type="line"/>
      <point x="32" y="400" type="line"/>
      <point x="32" y="475" type="line"/>
      <point x="815" y="475" type="line"/>
    </contour>
  </outline>
</glyph>
<glyph name="brokenbar" format="2">
  <advance width="196"/>
  <unicode hex="00A6"/>
  <outline>
    <contour>
      <point x="58" y="147" type="line"/>
      <point x="133" y="147" type="line"/>
      <point x="133" y="-164" type="line"/>
      <point x="58" y="-164" type="line"/>
    </contour>
    <contour>
      <point x="133" y="578" type="line"/>
      <point x="58" y="578" type="line"/>
      <point x="58" y="867" type="line"/>
      <point x="133" y="867" type="line"/>
    </contour>
  </outline>
</glyph>
<glyph name="copyright" format="2">
  <advance width="680"/>
  <unicode hex="00A9"/>
  <outline>
    <contour>
      <point x="340" y="51" type="qcurve" smooth="yes"/>
      <point x="277" y="51"/>
      <point x="163" y="98"/>
      <point x="118" y="143" type="qcurve" smooth="yes"/>
      <point x="73" y="188"/>
      <point x="26" y="302"/>
      <point x="26" y="365" type="qcurve" smooth="yes"/>
      <point x="26" y="428"/>
      <point x="73" y="542"/>
      <point x="118" y="587" type="qcurve" smooth="yes"/>
      <point x="163" y="632"/>
      <point x="277" y="679"/>
      <point x="340" y="679" type="qcurve" smooth="yes"/>
      <point x="403" y="679"/>
      <point x="517" y="632"/>
      <point x="562" y="587" type="qcurve" smooth="yes"/>
      <point x="607" y="542"/>
      <point x="654" y="428"/>
      <point x="654" y="365" type="qcurve" smooth="yes"/>
      <point x="654" y="302"/>
      <point x="607" y="188"/>
      <point x="562" y="143" type="qcurve" smooth="yes"/>
      <point x="517" y="98"/>
      <point x="403" y="51"/>
    </contour>
    <contour>
      <point x="340" y="615" type="qcurve" smooth="yes"/>
      <point x="288" y="615"/>
      <point x="197" y="576"/>
      <point x="129" y="508"/>
      <point x="90" y="417"/>
      <point x="90" y="365" type="qcurve" smooth="yes"/>
      <point x="90" y="313"/>
      <point x="129" y="222"/>
      <point x="197" y="154"/>
      <point x="288" y="115"/>
      <point x="340" y="115" type="qcurve" smooth="yes"/>
      <point x="392" y="115"/>
      <point x="483" y="154"/>
      <point x="551" y="222"/>
      <point x="590" y="313"/>
      <point x="590" y="365" type="qcurve" smooth="yes"/>
      <point x="590" y="417"/>
      <point x="551" y="508"/>
      <point x="483" y="576"/>
      <point x="392" y="615"/>
    </contour>
    <contour>
      <point x="434" y="297" type="line"/>
      <point x="418" y="275"/>
      <point x="369" y="249"/>
      <point x="340" y="249" type="qcurve" smooth="yes"/>
      <point x="316" y="249"/>
      <point x="273" y="267"/>
      <point x="242" y="299"/>
      <point x="223" y="341"/>
      <point x="223" y="365" type="qcurve" smooth="yes"/>
      <point x="223" y="389"/>
      <point x="242" y="432"/>
      <point x="273" y="463"/>
      <point x="316" y="482"/>
      <point x="340" y="482" type="qcurve" smooth="yes"/>
      <point x="363" y="482"/>
      <point x="405" y="464"/>
      <point x="421" y="449" type="qcurve"/>
      <point x="465" y="495" type="line"/>
      <point x="441" y="518"/>
      <point x="377" y="546"/>
      <point x="340" y="546" type="qcurve" smooth="yes"/>
      <point x="302" y="546"/>
      <point x="237" y="518"/>
      <point x="187" y="468"/>
      <point x="159" y="402"/>
      <point x="159" y="365" type="qcurve" smooth="yes"/>
      <point x="159" y="327"/>
      <point x="187" y="262"/>
      <point x="237" y="213"/>
      <point x="302" y="185"/>
      <point x="340" y="185" type="qcurve" smooth="yes"/>
      <point x="385" y="185"/>
      <point x="461" y="225"/>
      <point x="486" y="259" type="qcurve"/>
    </contour>
  </outline>
</glyph>
<glyph name="registered" format="2">
  <advance width="682"/>
  <unicode hex="00AE"/>
  <outline>
    <contour>
      <point x="338" y="65" type="qcurve" smooth="yes"/>
      <point x="275" y="65"/>
      <point x="163" y="112"/>
      <point x="119" y="156" type="qcurve" smooth="yes"/>
      <point x="74" y="201"/>
      <point x="27" y="313"/>
      <point x="27" y="376" type="qcurve" smooth="yes"/>
      <point x="27" y="439"/>
      <point x="74" y="552"/>
      <point x="119" y="596" type="qcurve" smooth="yes"/>
      <point x="163" y="641"/>
      <point x="275" y="687"/>
      <point x="338" y="687" type="qcurve" smooth="yes"/>
      <point x="401" y="687"/>
      <point x="514" y="641"/>
      <point x="558" y="596" type="qcurve" smooth="yes"/>
      <point x="603" y="552"/>
      <point x="650" y="439"/>
      <point x="650" y="376" type="qcurve" smooth="yes"/>
      <point x="650" y="313"/>
      <point x="603" y="201"/>
      <point x="558" y="156" type="qcurve" smooth="yes"/>
      <point x="514" y="112"/>
      <point x="401" y="65"/>
    </contour>
    <contour>
      <point x="338" y="641" type="qcurve" smooth="yes"/>
      <point x="283" y="641"/>
      <point x="187" y="599"/>
      <point x="115" y="527"/>
      <point x="73" y="431"/>
      <point x="73" y="376" type="qcurve" smooth="yes"/>
      <point x="73" y="321"/>
      <point x="115" y="225"/>
      <point x="187" y="153"/>
      <point x="283" y="111"/>
      <point x="338" y="111" type="qcurve" smooth="yes"/>
      <point x="393" y="111"/>
      <point x="490" y="153"/>
      <point x="562" y="225"/>
      <point x="604" y="321"/>
      <point x="604" y="376" type="qcurve" smooth="yes"/>
      <point x="604" y="431"/>
      <point x="562" y="527"/>
      <point x="490" y="599"/>
      <point x="393" y="641"/>
    </contour>
    <contour>
      <point x="428" y="383" type="qcurve"/>
      <point x="470" y="287"/>
      <point x="514" y="191" type="qcurve"/>
      <point x="476" y="191" type="line"/>
      <point x="394" y="376" type="line"/>
      <point x="394" y="191" type="line"/>
      <point x="172" y="191" type="line"/>
      <point x="172" y="561" type="line"/>
      <point x="394" y="561" type="line" smooth="yes"/>
      <point x="413" y="561"/>
      <point x="447" y="547"/>
      <point x="472" y="521"/>
      <point x="486" y="487"/>
      <point x="486" y="468" type="qcurve" smooth="yes"/>
      <point x="486" y="434"/>
      <point x="459" y="395"/>
    </contour>
    <contour>
      <point x="449" y="468" type="qcurve" smooth="yes"/>
      <point x="449" y="492"/>
      <point x="417" y="524"/>
      <point x="394" y="524" type="qcurve"/>
      <point x="394" y="413" type="line"/>
      <point x="417" y="413"/>
      <point x="449" y="444"/>
    </contour>
  </outline>
</glyph>
<glyph name="macron" format="2">
  <advance width="517"/>
  <unicode hex="00AF"/>
  <outline>
    <contour>
      <point x="566" y="285" type="line"/>
      <point x="-39" y="285" type="line"/>
      <point x="-39" y="360" type="line"/>
      <point x="566" y="360" type="line"/>
    </contour>
  </outline>
</glyph>
<glyph name="plusminus" format="2">
  <advance width="539"/>
  <unicode hex="00B1"/>
  <outline>
    <contour>
      <point x="505" y="373" type="line"/>
      <point x="26" y="373" type="line"/>
      <point x="26" y="448" type="line"/>
      <point x="505" y="448" type="line"/>
    </contour>
    <contour>
      <point x="303" y="654" type="line"/>
      <point x="303" y="175" type="line"/>
      <point x="228" y="175" type="line"/>
      <point x="228" y="654" type="line"/>
    </contour>
    <contour>
      <point x="505" y="40" type="line"/>
      <point x="26" y="40" type="line"/>
      <point x="26" y="115" type="line"/>
      <point x="505" y="115" type="line"/>
    </contour>
  </outline>
</glyph>
<glyph name="periodcentered" format="2">
  <unicode hex="00B7"/>
  <outline>
    <contour>
      <point x="-91" y="371" type="qcurve" smooth="yes"/>
      <point x="-91" y="409"/>
      <point x="-38" y="462"/>
      <point x="0" y="462" type="qcurve" smooth="yes"/>
      <point x="38" y="462"/>
      <point x="91" y="409"/>
      <point x="91" y="371" type="qcurve" smooth="yes"/>
      <point x="91" y="333"/>
      <point x="38" y="280"/>
      <point x="0" y="280" type="qcurve" smooth="yes"/>
      <point x="-38" y="280"/>
      <point x="-91" y="333"/>
    </contour>
  </outline>
</glyph>
<glyph name="Icircumflex" format="2">
  <advance width="501"/>
  <unicode hex="00CE"/>
  <outline>
    <contour>
      <point x="456" y="695" type="line"/>
      <point x="456" y="0" type="line"/>
      <point x="39" y="0" type="line"/>
      <point x="39" y="695" type="line"/>
    </contour>
    <contour>
      <point x="118" y="726" type="line"/>
      <point x="32" y="760" type="line"/>
      <point x="101" y="934" type="line"/>
      <point x="221" y="879" type="line"/>
    </contour>
    <contour>
      <point x="278" y="879" type="line"/>
      <point x="398" y="934" type="line"/>
      <point x="467" y="760" type="line"/>
      <point x="381" y="726" type="line"/>
    </contour>
  </outline>
</glyph>
<glyph name="iacute" format="2">
  <advance width="501"/>
  <unicode hex="00ED"/>
  <outline>
    <contour>
      <point x="456" y="695" type="line"/>
      <point x="456" y="0" type="line"/>
      <point x="39" y="0" type="line"/>
      <point x="39" y="695" type="line"/>
    </contour>
    <contour>
      <point x="272" y="740" type="line"/>
      <point x="186" y="774" type="line"/>
      <point x="247" y="944" type="line"/>
      <point x="369" y="885" type="line"/>
    </contour>
  </outline>
</glyph>
<glyph name="eth" format="2">
  <advance width="706"/>
  <unicode hex="00F0"/>
  <outline>
    <contour>
      <point x="670" y="286" type="line"/>
      <point x="670" y="284" type="line"/>
      <point x="670" y="282" type="line"/>
      <point x="670" y="281" type="line"/>
      <point x="670" y="279" type="line"/>
      <point x="670" y="277" type="line"/>
      <point x="670" y="275" type="line"/>
      <point x="670" y="273" type="line"/>
      <point x="670" y="266" type="line"/>
      <point x="670" y="264" type="line"/>
      <point x="670" y="258" type="line" smooth="yes"/>
      <point x="670" y="244"/>
      <point x="669" y="215"/>
      <point x="668" y="201" type="qcurve" smooth="yes"/>
      <point x="666" y="159"/>
      <point x="633" y="86"/>
      <point x="577" y="31"/>
      <point x="503" y="0"/>
      <point x="460" y="0" type="qcurve" smooth="yes"/>
      <point x="43" y="0" type="line"/>
      <point x="43" y="695" type="line"/>
      <point x="460" y="695" type="line" smooth="yes"/>
      <point x="503" y="695"/>
      <point x="579" y="662"/>
      <point x="636" y="606"/>
      <point x="669" y="530"/>
      <point x="669" y="487" type="qcurve" smooth="yes"/>
      <point x="669" y="444"/>
      <point x="670" y="360"/>
      <point x="670" y="315" type="qcurve" smooth="yes"/>
    </contour>
    <contour>
      <point x="460" y="381" type="line"/>
      <point x="551" y="381" type="line"/>
      <point x="551" y="307" type="line"/>
      <point x="460" y="307" type="line"/>
      <point x="460" y="69" type="line"/>
      <point x="495" y="69"/>
      <point x="547" y="94"/>
      <point x="582" y="136"/>
      <point x="599" y="194"/>
      <point x="599" y="227" type="qcurve" smooth="yes"/>
      <point x="599" y="487" type="line" smooth="yes"/>
      <point x="599" y="515"/>
      <point x="577" y="566"/>
      <point x="539" y="604"/>
      <point x="488" y="626"/>
      <point x="460" y="626" type="qcurve"/>
    </contour>
  </outline>
</glyph>
<glyph name="thorn" format="2">
  <advance width="833"/>
  <unicode hex="00FE"/>
  <outline>
    <contour>
      <point x="488" y="867" type="line"/>
      <point x="488" y="-164" type="line"/>
      <point x="413" y="-164" type="line"/>
      <point x="413" y="867" type="line"/>
    </contour>
    <contour>
      <point x="629" y="386" type="qcurve"/>
      <point x="677" y="357"/>
      <point x="729" y="267"/>
      <point x="729" y="210" type="qcurve" smooth="yes"/>
      <point x="729" y="166"/>
      <point x="697" y="90"/>
      <point x="641" y="33"/>
      <point x="564" y="0"/>
      <point x="520" y="0" type="qcurve" smooth="yes"/>
      <point x="103" y="0" type="line"/>
      <point x="103" y="695" type="line"/>
      <point x="520" y="695" type="line" smooth="yes"/>
      <point x="557" y="695"/>
      <point x="620" y="668"/>
      <point x="667" y="621"/>
      <point x="694" y="557"/>
      <point x="694" y="520" type="qcurve" smooth="yes"/>
      <point x="694" y="480"/>
      <point x="660" y="411"/>
    </contour>
    <contour>
      <point x="624" y="521" type="qcurve" smooth="yes"/>
      <point x="624" y="566"/>
      <point x="565" y="625"/>
      <point x="520" y="625" type="qcurve"/>
      <point x="520" y="417" type="line"/>
      <point x="565" y="417"/>
      <point x="624" y="476"/>
    </contour>
    <contour>
      <point x="659" y="208" type="qcurve" smooth="yes"/>
      <point x="659" y="237"/>
      <point x="637" y="288"/>
      <point x="600" y="325"/>
      <point x="549" y="347"/>
      <point x="520" y="347" type="qcurve"/>
      <point x="520" y="69" type="line"/>
      <point x="549" y="69"/>
      <point x="600" y="91"/>
      <point x="637" y="128"/>
      <point x="659" y="179"/>
    </contour>
  </outline>
</glyph>
<glyph name="Hcircumflex" format="2">
  <advance width="706"/>
  <unicode hex="0124"/>
  <outline>
    <contour>
      <point x="667" y="695" type="line"/>
      <point x="667" y="0" type="line"/>
      <point x="598" y="0" type="line"/>
      <point x="598" y="348" type="line"/>
      <point x="459" y="348" type="line"/>
      <point x="459" y="0" type="line"/>
      <point x="41" y="0" type="line"/>
      <point x="41" y="695" type="line"/>
      <point x="459" y="695" type="line"/>
      <point x="459" y="417" type="line"/>
      <point x="598" y="417" type="line"/>
      <point x="598" y="695" type="line"/>
    </contour>
    <contour>
      <point x="381" y="888" type="line"/>
      <point x="503" y="947" type="line"/>
      <point x="564" y="777" type="line"/>
      <point x="478" y="743" type="line"/>
    </contour>
    <contour>
      <point x="224" y="743" type="line"/>
      <point x="138" y="777" type="line"/>
      <point x="199" y="947" type="line"/>
      <point x="321" y="888" type="line"/>
    </contour>
  </outline>
</glyph>
<glyph name="Idotaccent" format="2">
  <advance width="501"/>
  <unicode hex="0130"/>
  <outline>
    <contour>
      <point x="456" y="695" type="line"/>
      <point x="456" y="0" type="line"/>
      <point x="39" y="0" type="line"/>
      <point x="39" y="695" type="line"/>
    </contour>
    <contour>
      <point x="152" y="838" type="qcurve" smooth="yes"/>
      <point x="152" y="856"/>
      <point x="166" y="888"/>
      <point x="189" y="913"/>
      <point x="221" y="927"/>
      <point x="239" y="927" type="qcurve" smooth="yes"/>
      <point x="257" y="927"/>
      <point x="289" y="913"/>
      <point x="313" y="888"/>
      <point x="327" y="856"/>
      <point x="327" y="838" type="qcurve" smooth="yes"/>
      <point x="327" y="820"/>
      <point x="313" y="787"/>
      <point x="289" y="763"/>
      <point x="257" y="749"/>
      <point x="239" y="749" type="qcurve" smooth="yes"/>
      <point x="203" y="749"/>
      <point x="152" y="801"/>
    </contour>
  </outline>
</glyph>
<glyph name="Lcaron" format="2">
  <advance width="683"/>
  <unicode hex="013D"/>
  <outline>
    <contour>
      <point x="666" y="69" type="line"/>
      <point x="666" y="0" type="line"/>
      <point x="40" y="0" type="line"/>
      <point x="40" y="695" type="line"/>
      <point x="457" y="695" type="line"/>
      <point x="457" y="69" type="line"/>
    </contour>
    <contour>
      <point x="339" y="957" type="line"/>
      <point x="425" y="923" type="line"/>
      <point x="356" y="749" type="line"/>
      <point x="145" y="749" type="line"/>
      <point x="76" y="923" type="line"/>
      <point x="162" y="957" type="line"/>
      <point x="250" y="826" type="line"/>
    </contour>
  </outline>
</glyph>
<glyph name="OE" format="2">
  <advance width="1245"/>
  <unicode hex="0152"/>
  <outline>
    <contour>
      <point x="1220" y="69" type="line"/>
      <point x="1220" y="0" type="line"/>
      <point x="629" y="0" type="line"/>
      <point x="629" y="90" type="line"/>
      <point x="616" y="73"/>
      <point x="601" y="59" type="qcurve" smooth="yes"/>
      <point x="573" y="32"/>
      <point x="497" y="0"/>
      <point x="457" y="0" type="qcurve" smooth="yes"/>
      <point x="248" y="0" type="line" smooth="yes"/>
      <point x="205" y="0"/>
      <point x="129" y="33"/>
      <point x="73" y="89"/>
      <point x="40" y="165"/>
      <point x="40" y="208" type="qcurve" smooth="yes"/>
      <point x="40" y="486" type="line" smooth="yes"/>
      <point x="40" y="529"/>
      <point x="73" y="605"/>
      <point x="129" y="662"/>
      <point x="205" y="695"/>
      <point x="248" y="695" type="qcurve" smooth="yes"/>
      <point x="457" y="695" type="line" smooth="yes"/>
      <point x="500" y="695"/>
      <point x="576" y="662"/>
      <point x="604" y="633" type="qcurve" smooth="yes"/>
      <point x="618" y="619"/>
      <point x="629" y="603" type="qcurve"/>
      <point x="629" y="695" type="line"/>
      <point x="1220" y="695" type="line"/>
      <point x="1220" y="625" type="line"/>
      <point x="1047" y="625" type="line"/>
      <point x="1047" y="417" type="line"/>
      <point x="1220" y="417" type="line"/>
      <point x="1220" y="347" type="line"/>
      <point x="1047" y="347" type="line"/>
      <point x="1047" y="69" type="line"/>
    </contour>
    <contour>
      <point x="457" y="69" type="line"/>
      <point x="494" y="69"/>
      <point x="546" y="95"/>
      <point x="580" y="139"/>
      <point x="596" y="199"/>
      <point x="596" y="232" type="qcurve" smooth="yes"/>
      <point x="596" y="486" type="line" smooth="yes"/>
      <point x="596" y="515"/>
      <point x="574" y="566"/>
      <point x="537" y="603"/>
      <point x="486" y="625"/>
      <point x="457" y="625" type="qcurve"/>
    </contour>
  </outline>
</glyph>
<glyph name="Tcaron" format="2">
  <advance width="732"/>
  <unicode hex="0164"/>
  <outline>
    <contour>
      <point x="715" y="695" type="line"/>
      <point x="715" y="625" type="line"/>
      <point x="575" y="625" type="line"/>
      <point x="575" y="0" type="line"/>
      <point x="161" y="0" type="line"/>
      <point x="160" y="625" type="line"/>
      <point x="20" y="625" type="line"/>
      <point x="20" y="695" type="line"/>
    </contour>
    <contour>
      <point x="444" y="957" type="line"/>
      <point x="530" y="923" type="line"/>
      <point x="461" y="749" type="line"/>
      <point x="250" y="749" type="line"/>
      <point x="181" y="923" type="line"/>
      <point x="267" y="957" type="line"/>
      <point x="355" y="826" type="line"/>
    </contour>
  </outline>
</glyph>
<glyph name="Uogonek" format="2">
  <advance width="714"/>
  <unicode hex="0172"/>
  <outline>
    <contour>
      <point x="672" y="308" type="qcurve" smooth="yes"/>
      <point x="672" y="281"/>
      <point x="673" y="249"/>
      <point x="673" y="244" type="qcurve" smooth="yes"/>
      <point x="673" y="233"/>
      <point x="672" y="212"/>
      <point x="671" y="201" type="qcurve" smooth="yes"/>
      <point x="669" y="159"/>
      <point x="635" y="86"/>
      <point x="579" y="31"/>
      <point x="504" y="0"/>
      <point x="462" y="0" type="qcurve" smooth="yes"/>
      <point x="254" y="0" type="line" smooth="yes"/>
      <point x="211" y="0"/>
      <point x="135" y="33"/>
      <point x="78" y="89"/>
      <point x="45" y="165"/>
      <point x="45" y="208" type="qcurve" smooth="yes"/>
      <point x="45" y="695" type="line"/>
      <point x="462" y="695" type="line"/>
      <point x="462" y="69" type="line"/>
      <point x="500" y="69"/>
      <point x="554" y="96"/>
      <point x="576" y="128" type="qcurve" smooth="yes"/>
      <point x="597" y="159"/>
      <point x="601" y="220"/>
      <point x="601" y="255" type="qcurve" smooth="yes"/>
      <point x="601" y="695" type="line"/>
      <point x="671" y="695" type="line"/>
      <point x="671" y="598"/>
      <point x="672" y="405"/>
    </contour>
    <contour>
      <point x="218" y="-150" type="line" smooth="yes"/>
      <point x="218" y="-117"/>
      <point x="264" y="-71"/>
      <point x="298" y="-71" type="qcurve" smooth="yes"/>
      <point x="341" y="-71" type="line"/>
      <point x="341" y="0" type="line"/>
      <point x="435" y="0" type="line"/>
      <point x="435" y="-106" type="line"/>
      <point x="328" y="-106" type="line"/>
      <point x="328" y="-135"/>
      <point x="329" y="-198"/>
      <point x="329" y="-227" type="qcurve"/>
      <point x="399" y="-227" type="line" smooth="yes"/>
      <point x="419" y="-227"/>
      <point x="447" y="-193"/>
      <point x="447" y="-170" type="qcurve"/>
      <point x="493" y="-170" type="line"/>
      <point x="493" y="-191"/>
      <point x="478" y="-228"/>
      <point x="452" y="-255"/>
      <point x="418" y="-270"/>
      <point x="399" y="-270" type="qcurve" smooth="yes"/>
      <point x="298" y="-270" type="line" smooth="yes"/>
      <point x="264" y="-270"/>
      <point x="218" y="-226"/>
      <point x="218" y="-192" type="qcurve" smooth="yes"/>
    </contour>
  </outline>
</glyph>
<glyph name="gravecomb" format="2">
  <advance width="765"/>
  <unicode hex="0300"/>
  <outline>
    <contour>
      <point x="290" y="885" type="line"/>
      <point x="412" y="944" type="line"/>
      <point x="473" y="774" type="line"/>
      <point x="387" y="740" type="line"/>
    </contour>
  </outline>
</glyph>
<glyph name="acutecomb" format="2">
  <advance width="736"/>
  <unicode hex="0301"/>
  <outline>
    <contour>
      <point x="376" y="740" type="line"/>
      <point x="290" y="774" type="line"/>
      <point x="351" y="944" type="line"/>
      <point x="473" y="885" type="line"/>
    </contour>
  </outline>
</glyph>
<glyph name="uni0302" format="2">
  <advance width="661"/>
  <unicode hex="0302"/>
  <outline>
    <contour>
      <point x="372" y="888" type="line"/>
      <point x="494" y="947" type="line"/>
      <point x="555" y="777" type="line"/>
      <point x="469" y="743" type="line"/>
    </contour>
    <contour>
      <point x="215" y="743" type="line"/>
      <point x="129" y="777" type="line"/>
      <point x="190" y="947" type="line"/>
      <point x="312" y="888" type="line"/>
    </contour>
  </outline>
</glyph>
<glyph name="uni0306" format="2">
  <advance width="697"/>
  <unicode hex="0306"/>
  <outline>
    <contour>
      <point x="349" y="827" type="qcurve" smooth="yes"/>
      <point x="375" y="827"/>
      <point x="411" y="870"/>
      <point x="411" y="899" type="qcurve"/>
      <point x="505" y="899" type="line"/>
      <point x="505" y="865"/>
      <point x="481" y="805"/>
      <point x="439" y="760"/>
      <point x="382" y="733"/>
      <point x="349" y="733" type="qcurve" smooth="yes"/>
      <point x="317" y="733"/>
      <point x="261" y="760"/>
      <point x="218" y="805"/>
      <point x="193" y="865"/>
      <point x="193" y="899" type="qcurve"/>
      <point x="287" y="899" type="line"/>
      <point x="287" y="870"/>
      <point x="323" y="827"/>
    </contour>
  </outline>
</glyph>
<glyph name="uni0308" format="2">
  <advance width="713"/>
  <unicode hex="0308"/>
  <outline>
    <contour>
      <point x="139" y="824" type="qcurve" smooth="yes"/>
      <point x="139" y="858"/>
      <point x="185" y="905"/>
      <point x="219" y="905" type="qcurve" smooth="yes"/>
      <point x="253" y="905"/>
      <point x="300" y="858"/>
      <point x="300" y="824" type="qcurve" smooth="yes"/>
      <point x="300" y="790"/>
      <point x="253" y="744"/>
      <point x="219" y="744" type="qcurve" smooth="yes"/>
      <point x="185" y="744"/>
      <point x="139" y="790"/>
    </contour>
    <contour>
      <point x="412" y="824" type="qcurve" smooth="yes"/>
      <point x="412" y="858"/>
      <point x="458" y="905"/>
      <point x="492" y="905" type="qcurve" smooth="yes"/>
      <point x="526" y="905"/>
      <point x="573" y="858"/>
      <point x="573" y="824" type="qcurve" smooth="yes"/>
      <point x="573" y="790"/>
      <point x="526" y="744"/>
      <point x="492" y="744" type="qcurve" smooth="yes"/>
      <point x="458" y="744"/>
      <point x="412" y="790"/>
    </contour>
  </outline>
</glyph>
<glyph name="uni030A" format="2">
  <advance width="703"/>
  <unicode hex="030A"/>
  <outline>
    <contour>
      <point x="352" y="740" type="qcurve" smooth="yes"/>
      <point x="331" y="740"/>
      <point x="293" y="756"/>
      <point x="265" y="785"/>
      <point x="249" y="822"/>
      <point x="249" y="843" type="qcurve" smooth="yes"/>
      <point x="249" y="886"/>
      <point x="309" y="944"/>
      <point x="352" y="944" type="qcurve" smooth="yes"/>
      <point x="373" y="944"/>
      <point x="410" y="928"/>
      <point x="438" y="901"/>
      <point x="455" y="864"/>
      <point x="455" y="843" type="qcurve" smooth="yes"/>
      <point x="455" y="822"/>
      <point x="438" y="785"/>
      <point x="410" y="756"/>
      <point x="373" y="740"/>
    </contour>
    <contour>
      <point x="355" y="890" type="qcurve" smooth="yes"/>
      <point x="333" y="890"/>
      <point x="306" y="864"/>
      <point x="306" y="844" type="qcurve" smooth="yes"/>
      <point x="306" y="827"/>
      <point x="333" y="798"/>
      <point x="355" y="798" type="qcurve" smooth="yes"/>
      <point x="375" y="798"/>
      <point x="403" y="827"/>
      <point x="403" y="844" type="qcurve" smooth="yes"/>
      <point x="403" y="864"/>
      <point x="375" y="890"/>
    </contour>
  </outline>
</glyph>
<glyph name="uni030B" format="2">
  <advance width="755"/>
  <unicode hex="030B"/>
  <outline>
    <contour>
      <point x="227" y="740" type="line"/>
      <point x="141" y="774" type="line"/>
      <point x="202" y="944" type="line"/>
      <point x="324" y="885" type="line"/>
    </contour>
    <contour>
      <point x="500" y="740" type="line"/>
      <point x="414" y="774" type="line"/>
      <point x="475" y="944" type="line"/>
      <point x="597" y="885" type="line"/>
    </contour>
  </outline>
</glyph>
<glyph name="uni030C" format="2">
  <advance width="739"/>
  <unicode hex="030C"/>
  <outline>
    <contour>
      <point x="444" y="957" type="line"/>
      <point x="530" y="923" type="line"/>
      <point x="461" y="749" type="line"/>
      <point x="250" y="749" type="line"/>
      <point x="181" y="923" type="line"/>
      <point x="267" y="957" type="line"/>
      <point x="355" y="826" type="line"/>
    </contour>
  </outline>
</glyph>
<glyph name="uni0326" format="2">
  <advance width="510"/>
  <unicode hex="0326"/>
  <outline>
    <contour>
      <point x="201" y="280" type="line"/>
      <point x="309" y="280" type="line"/>
      <point x="309" y="189" type="line"/>
      <point x="201" y="122" type="line"/>
    </contour>
  </outline>
</glyph>
<glyph name="dagger" format="2">
  <advance width="510"/>
  <unicode hex="2020"/>
  <outline>
    <contour>
      <point x="293" y="867" type="line"/>
      <point x="293" y="-164" type="line"/>
      <point x="218" y="-164" type="line"/>
      <point x="218" y="867" type="line"/>
    </contour>
    <contour>
      <point x="495" y="285" type="line"/>
      <point x="16" y="285" type="line"/>
      <point x="16" y="360" type="line"/>
      <point x="495" y="360" type="line"/>
    </contour>
  </outline>
</glyph>
<glyph name="daggerdbl" format="2">
  <advance width="510"/>
  <unicode hex="2021"/>
  <outline>
    <contour>
      <point x="293" y="867" type="line"/>
      <point x="293" y="-164" type="line"/>
      <point x="218" y="-164" type="line"/>
      <point x="218" y="867" type="line"/>
    </contour>
    <contour>
      <point x="647" y="215" type="line"/>
      <point x="-136" y="215" type="line"/>
      <point x="-136" y="290" type="line"/>
      <point x="647" y="290" type="line"/>
    </contour>
    <contour>
      <point x="647" y="400" type="line"/>
      <point x="-136" y="400" type="line"/>
      <point x="-136" y="475" type="line"/>
      <point x="647" y="475" type="line"/>
    </contour>
  </outline>
</glyph>
